<svg width="28" height="28" viewBox="0 0 28 28" xmlns="http://www.w3.org/2000/svg">
    <g fill="none" fill-rule="evenodd">
        <path d="M3.072 9.14l1.832-.48 1.987.974 1-.974 2.044-.775.747 1.255 2.492-.946 1.06-1.227 2.472-.653 1.89 1.217 1.713-.564 1.627-.653 2.606.296" stroke="#F74D71" />
        <circle fill="#F74D71" cx="24.5" cy="6.5" r="1.5" />
        <circle fill="#F74D71" cx="24.5" cy="12.5" r="1.5" />
        <circle fill="#F74D71" cx="24.5" cy="20.5" r="1.5" />
        <path stroke="#F74D71" d="M3.072 14.14l1.832.52.987-.026 2 1.026 2.044-.775.747-.745 2.492.054 1.06 1.773 2.472-3.653 1.89-.783 1.713 1.436 1.617.782 2.63-1.175M3.072 20.14l1.832-1.48 1.987-.026 1 1.026 2.044 2.225 1.747.255 1.492.054 1.06-.227 2.472-.653 1.89-1.783 1.713.436 1.683 1.347 2.649-.9" />
    </g>
</svg>