<svg width="28" height="28" viewBox="0 0 28 28" xmlns="http://www.w3.org/2000/svg">
    <g fill="none" fill-rule="evenodd">
        <path d="M3 9.474c2.807 0 4.16-3.183 6.94-3.183 2.78 0 4.468 4.149 7.028 4.147 2.559-.002 5.049-4.147 8.032-4.147v7.167c-3.592.754-6.27 1.131-8.032 1.131-2.645 0-4.855-4.131-7.028-4.131-2.172 0-4.568 1.66-6.94 1.66V9.473z" fill="#F74D71" />
        <path d="M3 21.474c2.807 0 4.16-5.183 6.94-5.183 2.78 0 4.468 7.149 7.028 7.147 2.559-.002 5.049-8.147 8.032-8.147v-1.833c-3.592.754-6.27 1.131-8.032 1.131-2.645 0-4.855-4.131-7.028-4.131-2.172 0-4.568 1.66-6.94 1.66v9.356z" fill="#39246D" />
    </g>
</svg>